<?xml version="1.0" encoding="iso-8859-1"?>
<!-- Generator: Adobe Illustrator 19.0.0, SVG Export Plug-In . SVG Version: 6.00 Build 0)  -->
<svg version="1.1" id="Capa_1" xmlns="http://www.w3.org/2000/svg" xmlns:xlink="http://www.w3.org/1999/xlink" x="0px" y="0px"
	 viewBox="0 0 490 490" style="enable-background:new 0 0 490 490; fill:#ffffff;" xml:space="preserve">
<g>
	<g>
		<g>
			<path d="M105.8,330.6V490h278.4V330.6H105.8z M359.7,458.9H134.2c-5.4,0-9.7-4.3-9.7-9.7c0-5.4,4.3-9.7,9.7-9.7h225.6
				c5.4,0,9.7,4.3,9.7,9.7C369.4,454.6,365.2,458.9,359.7,458.9z M359.7,381.1H134.2c-5.4,0-9.7-4.3-9.7-9.7s4.3-9.7,9.7-9.7h225.6
				c5.4,0,9.7,4.3,9.7,9.7S365.2,381.1,359.7,381.1z"/>
			<path d="M384.2,123.3V0H105.8v123.3H384.2z M301.4,39.3c0-2.7,2.3-5.1,5.1-5.1h23.7c2.7,0,5.1,2.3,5.1,5.1v40.1
				c0,2.7-2.3,5.1-5.1,5.1h-23.7c-2.7,0-5.1-2.3-5.1-5.1V39.3z"/>
			<path d="M403.7,0v133c0,5.4-4.3,9.7-9.7,9.7H96.1c-5.4,0-9.7-4.3-9.7-9.7V0H0v490h86.3V320.8c0-5.4,4.3-9.7,9.7-9.7h297.9
				c5.4,0,9.7,4.3,9.7,9.7V490H490V52.9L437.1,0H403.7z"/>
		</g>
	</g>
</g>
<g>
</g>
<g>
</g>
<g>
</g>
<g>
</g>
<g>
</g>
<g>
</g>
<g>
</g>
<g>
</g>
<g>
</g>
<g>
</g>
<g>
</g>
<g>
</g>
<g>
</g>
<g>
</g>
<g>
</g>
</svg>
